HIERARCHY
ROOT Pelvis
{
	OFFSET 0.000000 0.000000 0.000000
	CHANNELS 6 Xposition Yposition Zposition Xrotation Yrotation Zrotation
	JOINT LeftUpLeg_virtual
	{
		OFFSET 0.000000 0.000000 0.000000
		CHANNELS 3 Xrotation Yrotation Zrotation
		JOINT LeftUpLeg
		{
			OFFSET 8.479700 -4.795502 -0.379100
			CHANNELS 3 Xrotation Yrotation Zrotation
			JOINT LeftLeg
			{
				OFFSET 0.024144 -32.555107 0.112900
				CHANNELS 3 Xrotation Yrotation Zrotation
				JOINT LeftFoot
				{
					OFFSET -0.024144 -32.638630 -3.012600
					CHANNELS 3 Xrotation Yrotation Zrotation
					JOINT LeftToeBase
					{
						OFFSET 0.970200 -13.225400 11.864200
						CHANNELS 3 Xrotation Yrotation Zrotation
						End Site
						{
							OFFSET 0 0 0
						}
					}
				}
			}
		}
	}
	JOINT RightUpLeg_virtual
	{
		OFFSET 0.000000 0.000000 0.000000
		CHANNELS 3 Xrotation Yrotation Zrotation
		JOINT RightUpLeg
		{
			OFFSET -8.479700 -4.795502 -0.379100
			CHANNELS 3 Xrotation Yrotation Zrotation
			JOINT RightLeg
			{
				OFFSET -0.023144 -32.555092 0.112900
				CHANNELS 3 Xrotation Yrotation Zrotation
				JOINT RightFoot
				{
					OFFSET 0.023144 -32.638641 -3.012700
					CHANNELS 3 Xrotation Yrotation Zrotation
					JOINT RightToeBase
					{
						OFFSET -0.970200 -13.225400 11.864200
						CHANNELS 3 Xrotation Yrotation Zrotation
						End Site
						{
							OFFSET 0 0 0
						}
					}
				}
			}
		}
	}
	JOINT Hips_virtual
	{
		OFFSET 0.000000 0.000000 0.000000
		CHANNELS 3 Xrotation Yrotation Zrotation
		JOINT Hips
		{
			OFFSET -0.000000 -0.000000 -0.000000
			CHANNELS 3 Xrotation Yrotation Zrotation
			JOINT Spine
			{
				OFFSET 0.000000 7.722000 1.166200
				CHANNELS 3 Xrotation Yrotation Zrotation
				JOINT Spine1
				{
					OFFSET 0.000000 12.024101 0.248800
					CHANNELS 3 Xrotation Yrotation Zrotation
					JOINT Spine2
					{
						OFFSET 0.000000 11.502998 -0.491200
						CHANNELS 3 Xrotation Yrotation Zrotation
						JOINT Neck_virtual
						{
							OFFSET 0.000000 0.000000 0.000000
							CHANNELS 3 Xrotation Yrotation Zrotation
							JOINT Neck
							{
								OFFSET 0.000000 18.430702 -3.123100
								CHANNELS 3 Xrotation Yrotation Zrotation
								JOINT Head
								{
									OFFSET 0.000000 9.051102 1.034000
									CHANNELS 3 Xrotation Yrotation Zrotation
									End Site
									{
										OFFSET 0 0 0
									}
								}
							}
						}
						JOINT LeftShoulder_virtual
						{
							OFFSET 0.000000 0.000000 0.000000
							CHANNELS 3 Xrotation Yrotation Zrotation
							JOINT LeftShoulder
							{
								OFFSET 6.197800 13.665199 -4.064700
								CHANNELS 3 Xrotation Yrotation Zrotation
								JOINT LeftArm
								{
									OFFSET 7.778100 -0.187103 -1.709300
									CHANNELS 3 Xrotation Yrotation Zrotation
									JOINT LeftForeArm
									{
										OFFSET 22.049376 0.000000 0.000000
										CHANNELS 3 Xrotation Yrotation Zrotation
										JOINT LeftHand
										{
											OFFSET 23.009392 0.000000 0.000000
											CHANNELS 3 Xrotation Yrotation Zrotation
											End Site
											{
												OFFSET 0 0 0
											}
										}
									}
								}
							}
						}
						JOINT RightShoulder_virtual
						{
							OFFSET 0.000000 0.000000 0.000000
							CHANNELS 3 Xrotation Yrotation Zrotation
							JOINT RightShoulder
							{
								OFFSET -6.197800 13.665199 -4.064700
								CHANNELS 3 Xrotation Yrotation Zrotation
								JOINT RightArm
								{
									OFFSET -7.778100 -0.187103 -1.709300
									CHANNELS 3 Xrotation Yrotation Zrotation
									JOINT RightForeArm
									{
										OFFSET -22.049376 0.000000 0.000000
										CHANNELS 3 Xrotation Yrotation Zrotation
										JOINT RightHand
										{
											OFFSET -23.009392 0.000000 0.000000
											CHANNELS 3 Xrotation Yrotation Zrotation
											End Site
											{
												OFFSET 0 0 0
											}
										}
									}
								}
							}
						}
					}
				}
			}
		}
	}
}
MOTION
Frames: 6
Frame Time: 0.03333333
1.431000 43.671379 -3.335770 0.000000 0.000000 0.000000 1.060424 -29.022109 8.855619 -77.579870 -13.045508 46.642163 76.873096 9.028089 -5.816219 22.613529 0.584633 -12.916548 0.000000 0.000000 0.000000 1.060424 -29.022109 8.855619 -28.890744 -1.253714 -17.555205 111.229316 4.481175 -0.890940 27.254529 3.177656 17.324775 0.000000 0.000000 0.000000 1.060424 -29.022109 8.855619 0.000000 0.000000 0.000000 3.575447 -5.655827 -4.148533 2.855675 -4.198784 -2.072993 0.000000 0.000000 0.000000 2.773303 -4.260252 -2.035173 0.447418 2.821360 2.164896 0.000000 0.000000 0.000000 2.773303 -4.260252 -2.035173 1.530508 -0.690787 -2.366978 -3.234537 -12.111233 -50.675366 -0.002648 -87.973390 -0.002657 0.000000 0.000000 0.000000 2.773303 -4.260252 -2.035173 5.585477 17.928710 2.373356 -33.414662 -16.065389 41.084643 -179.995552 87.189578 179.995538 0.000000 0.000000 0.000000 
1.406860 43.669319 -3.345449 0.000000 0.000000 0.000000 1.123207 -29.028027 8.916301 -77.595361 -12.990580 46.722630 76.795826 9.019302 -5.873295 22.685731 0.653744 -12.881138 0.000000 0.000000 0.000000 1.123207 -29.028027 8.916301 -28.988416 -1.246650 -17.510998 111.273979 4.462597 -0.888436 27.181119 3.139871 17.190285 0.000000 0.000000 0.000000 1.123207 -29.028027 8.916301 0.000001 -0.000000 -0.000001 3.569136 -5.598902 -4.277974 2.844911 -4.152762 -2.149814 0.000000 0.000000 0.000000 2.768607 -4.212022 -2.111293 0.463155 2.837770 2.357654 0.000000 0.000000 0.000000 2.768607 -4.212022 -2.111293 1.530164 -0.744389 -1.917310 -3.271990 -12.105438 -51.033036 0.003202 -88.077352 0.003104 0.000000 0.000000 0.000000 2.768607 -4.212022 -2.111293 5.560242 17.956439 2.651590 -32.494430 -15.150546 39.610282 -179.996248 85.307061 179.996276 0.000000 0.000000 0.000000 
1.380760 43.666344 -3.355553 0.000000 0.000000 0.000000 1.191293 -29.026706 8.987893 -77.620934 -12.925721 46.796870 76.721391 9.016073 -5.930226 22.748269 0.691703 -12.841130 0.000000 0.000000 0.000000 1.191293 -29.026706 8.987893 -29.085643 -1.242694 -17.476852 111.310978 4.454552 -0.887564 27.128227 3.110841 17.085052 0.000000 0.000000 0.000000 1.191293 -29.026706 8.987893 0.000000 0.000001 0.000000 3.556409 -5.551005 -4.407159 2.829096 -4.112357 -2.227857 0.000000 0.000000 0.000000 2.758115 -4.169719 -2.188755 0.482739 2.858633 2.531983 0.000000 0.000000 0.000000 2.758115 -4.169719 -2.188755 1.512196 -0.744083 -1.544893 -3.279708 -12.155385 -51.329828 -0.003702 -88.114358 -0.003710 0.000000 0.000000 0.000000 2.758115 -4.169719 -2.188755 5.540492 17.992959 2.918232 -31.912918 -14.467700 38.297649 -179.998393 83.544845 179.998379 0.000000 0.000000 0.000000 
1.351039 43.663490 -3.365938 0.000000 0.000000 0.000000 1.257751 -29.011355 9.061148 -77.642968 -12.864849 46.863868 76.648984 9.019109 -5.999274 22.801420 0.695689 -12.797592 0.000000 0.000000 0.000000 1.257751 -29.011355 9.061148 -29.171212 -1.254021 -17.450437 111.332787 4.449481 -0.890506 27.101675 3.092102 17.012229 0.000000 0.000000 0.000000 1.257751 -29.011355 9.061148 0.000000 0.000001 0.000000 3.539883 -5.515641 -4.535230 2.810491 -4.080787 -2.306024 0.000000 0.000000 0.000000 2.744169 -4.136570 -2.266375 0.495816 2.875334 2.696919 0.000000 0.000000 0.000000 2.744169 -4.136570 -2.266375 1.480364 -0.701478 -1.238072 -3.264497 -12.231492 -51.554319 0.001119 -88.164847 0.001041 0.000000 0.000000 0.000000 2.744169 -4.136570 -2.266375 5.526702 18.040666 3.182611 -31.850931 -14.060280 37.299540 -179.999568 81.908325 179.999554 0.000000 0.000000 0.000000 
1.315876 43.661316 -3.376474 0.000000 0.000000 0.000000 1.313328 -28.978464 9.124282 -77.644730 -12.822811 46.926822 76.577629 9.028431 -6.091938 22.847097 0.665884 -12.753153 0.000000 0.000000 0.000000 1.313328 -28.978464 9.124282 -29.232636 -1.291807 -17.427306 111.333094 4.437353 -0.896134 27.106232 3.083912 16.968300 0.000000 0.000000 0.000000 1.313328 -28.978464 9.124282 0.000000 -0.000001 0.000001 3.523313 -5.493757 -4.660930 2.792438 -4.059432 -2.382831 0.000000 0.000000 0.000000 2.730226 -4.113875 -2.342640 0.493518 2.880693 2.859612 0.000000 0.000000 0.000000 2.730226 -4.113875 -2.342640 1.439693 -0.631340 -0.980947 -3.226696 -12.317105 -51.720255 0.002568 -88.228333 0.002484 0.000000 0.000000 0.000000 2.730226 -4.113875 -2.342640 5.518883 18.099064 3.451666 -31.807324 -13.599824 36.387816 -179.999841 80.423920 179.999800 0.000000 0.000000 0.000000 
1.273520 43.659889 -3.386984 0.000000 0.000000 0.000000 1.348674 -28.929526 9.165570 -77.612362 -12.810346 46.992712 76.506841 9.043327 -6.213662 22.887629 0.604060 -12.710244 0.000000 0.000000 0.000000 1.348674 -28.929526 9.165570 -29.258621 -1.363007 -17.399571 111.308314 4.409130 -0.904460 27.143460 3.085408 16.947007 0.000000 0.000000 0.000000 1.348674 -28.929526 9.165570 -0.000000 0.000001 0.000001 3.511327 -5.483046 -4.783202 2.778901 -4.047167 -2.456911 0.000000 0.000000 0.000000 2.720401 -4.100479 -2.416175 0.470070 2.870172 3.024354 0.000000 0.000000 0.000000 2.720401 -4.100479 -2.416175 1.394882 -0.547444 -0.756147 -3.173331 -12.400905 -51.843427 -0.000635 -88.301765 -0.000691 0.000000 0.000000 0.000000 2.720401 -4.100479 -2.416175 5.516188 18.164644 3.729364 -31.699588 -13.049982 35.547187 -179.999923 79.055061 179.999909 0.000000 0.000000 0.000000 
